<?xml version="1.0" encoding="UTF-8"?>
<svg width="23px" height="24px" viewBox="0 0 23 24" version="1.1" xmlns="http://www.w3.org/2000/svg" xmlns:xlink="http://www.w3.org/1999/xlink">
    <!-- Generator: Sketch 60.1 (88133) - https://sketch.com -->
    <title>Path</title>
    <desc>Created with Sketch.</desc>
    <g id="Crear-Cuenta" stroke="none" stroke-width="1" fill="none" fill-rule="evenodd">
        <g id="registrarse/login" transform="translate(-1055.000000, -1084.000000)" fill="#FFFFFF">
            <path d="M1077.82814,1098.38723 C1076.92016,1104.49721 1072.47309,1108 1066.71561,1108 C1060.24553,1108 1055,1102.62676 1055,1095.99916 C1055,1089.37324 1060.24553,1084 1066.71561,1084 C1069.84538,1084 1072.58774,1085.14408 1074.58384,1087.13006 L1071.22163,1090.57413 C1070.08295,1089.39902 1068.5247,1088.77267 1066.71561,1088.77267 C1062.90703,1088.77267 1059.81932,1092.09942 1059.81932,1095.99905 C1059.81932,1099.90213 1062.90703,1103.13233 1066.71561,1103.13233 C1069.90771,1103.13233 1072.32501,1101.55178 1073.02234,1098.38723 L1066.71561,1098.38723 L1066.71561,1093.56789 L1077.7996,1093.56789 C1077.93266,1094.34438 1078,1095.15703 1078,1095.99905 C1078,1096.83425 1077.94093,1097.62972 1077.82814,1098.38723 Z" id="Path"></path>
        </g>
    </g>
</svg>