<?xml version="1.0" encoding="UTF-8"?>
<svg width="135px" height="124px" viewBox="0 0 135 124" version="1.1" xmlns="http://www.w3.org/2000/svg" xmlns:xlink="http://www.w3.org/1999/xlink">
    <!-- Generator: Sketch 60.1 (88133) - https://sketch.com -->
    <title>logo-ueb</title>
    <desc>Created with Sketch.</desc>
    <g id="Crear-Cuenta" stroke="none" stroke-width="1" fill="none" fill-rule="evenodd">
        <g id="logo-ueb" fill-rule="nonzero">
            <rect id="Rectangle" fill="#7BC142" x="0" y="0" width="134.9" height="123.5"></rect>
            <g id="Group-36" transform="translate(17.705625, 16.917808)" fill="#FFFFFF">
                <path d="M35.9037133,3.02328384 C35.9050146,3.46555064 36.2862997,3.82261604 36.7554233,3.82261604 C37.2245471,3.82131525 37.6051815,3.46294906 37.6038835,3.02068226 C37.6032296,2.57841546 37.2219445,2.22265085 36.7528207,2.22330035 C36.2836969,2.22395162 35.9037133,2.58166743 35.9037133,3.02328384 L35.9037133,3.02328384 Z M30.2996038,10.7115719 C30.3770319,9.66639136 30.6281856,8.61145497 30.9919029,7.61050113 C30.849409,7.86155258 30.5676745,8.03390655 30.242346,8.03455695 C29.7732222,8.03520734 29.3919371,7.67879233 29.3912865,7.23717591 C29.3906358,6.7962099 29.7706196,6.43654292 30.2397434,6.43589253 C30.7101684,6.43524214 31.0908029,6.79295794 31.0914535,7.23457435 C31.0914535,7.28530495 31.0875495,7.33603556 31.077139,7.38481499 C31.55342,6.14451676 32.1995225,4.99527346 32.8918216,4.06000925 C32.7447731,4.17252713 32.5573839,4.24081833 32.3524269,4.24146871 C31.8833031,4.24211911 31.5020181,3.88440331 31.5013674,3.44278691 C31.5000661,3.00182089 31.8800498,2.64215391 32.3491736,2.64150352 C32.8202494,2.64085313 33.2008838,2.99856892 33.2021851,3.44018533 C33.2021851,3.54229694 33.181364,3.63790462 33.1462286,3.72830915 C33.6400772,3.10718445 34.1501925,2.59987841 34.63298,2.24736575 C37.3065299,0.116029996 39.6527994,-0.453063316 41.440805,1.02007537 C43.0947753,2.28964126 37.2447175,7.84399199 35.5842406,10.9840863 C34.3675119,13.2565572 34.7754739,13.3254988 37.8797588,16.1560063 C39.9937436,18.1318983 40.0919929,18.1774258 40.966476,19.0749673 C41.7732908,19.9003151 41.9489682,20.3998164 41.2039658,21.3981687 C39.7640617,22.9122821 38.7119492,24.281358 36.0904518,26.8055308 C35.6323892,27.2874715 35.759918,27.6061638 36.3324963,28.1264777 C37.6748018,29.3706782 40.374378,31.6685144 41.8767453,33.4440856 C42.4050788,34.0248859 42.4460702,34.7006436 41.9353044,35.3334754 C41.034795,36.5477579 39.4842791,38.220567 38.1263578,39.7392332 C37.4691941,40.5236064 37.480906,40.7310816 38.2167992,41.2618017 C40.7855933,43.1446876 42.2287508,44.2471026 43.36675,45.1537496 C44.9998992,46.2639693 44.4676617,46.7738769 43.6048905,48.2014882 C41.8995183,50.4648536 40.3795833,52.3880638 38.5154508,53.6381179 C37.5824085,54.2098128 36.0260368,54.3802156 35.7852937,52.8674029 C35.7169746,52.1064439 36.3097232,51.2349181 37.1946169,50.3191657 C37.0573282,50.407619 36.8920614,50.4603008 36.7118294,50.4603008 C36.2427056,50.4616016 35.8614205,50.105837 35.8607699,49.6622693 C35.8594686,49.2226041 36.240103,48.8629372 36.7092267,48.8629372 C37.1783505,48.8622868 37.5596355,49.2200025 37.5609368,49.6596678 C37.5609368,49.8112092 37.5166922,49.9490924 37.4412159,50.0700654 C38.1706025,49.350081 39.0587494,48.6066825 39.9319312,47.8697881 C40.3307841,47.5406895 40.1765783,47.3442711 39.5317772,46.803795 C38.8798187,46.3238054 38.255188,45.8373119 37.6279545,45.3371602 C37.7528807,45.4750434 37.8264049,45.6532509 37.8264049,45.849019 C37.8277062,46.2893346 37.4477225,46.6477008 36.9779481,46.6490016 C36.5088243,46.6490016 36.1275393,46.2919362 36.1275393,45.8516206 C36.126238,45.4106545 36.5062217,45.0509876 36.9753455,45.0509876 C37.1354071,45.0509876 37.2850582,45.0919623 37.412587,45.162855 C36.4795448,44.413603 35.5367426,43.6279291 34.4956913,42.7804678 C34.5744208,42.9014408 34.6199668,43.0438768 34.6199668,43.1954181 C34.6206174,43.6370346 34.2399831,43.9941 33.77151,43.9954008 C33.3023862,43.9967015 32.9211012,43.6396361 32.9204505,43.1980197 C32.9197999,42.7570537 33.2997836,42.3986875 33.7689074,42.3973868 C33.885375,42.3973868 33.997288,42.4188497 34.1007425,42.4598244 L33.4780637,41.9616239 C32.64262,41.1616412 32.6413187,40.6049054 33.5528892,39.5720823 L34.0103012,39.0556708 C33.8801697,39.1330675 33.7272653,39.1759934 33.5639504,39.1759934 C33.094176,39.1772941 32.7128909,38.8195784 32.7115896,38.3786123 C32.7115896,37.9363455 33.0915733,37.5792801 33.5613478,37.5779794 C34.0298209,37.577329 34.4117565,37.9330936 34.4117565,38.3753604 C34.4124072,38.4794232 34.3915862,38.5776324 34.3544987,38.668037 C35.0305314,37.9012244 35.7293372,37.1005914 36.3357495,36.3968668 C36.1880504,36.5132871 35.9987092,36.5822286 35.7918002,36.5828791 C35.3220258,36.5835295 34.9413914,36.2264641 34.9407407,35.7841973 C34.9400901,35.3432312 35.3200738,34.984865 35.7891976,34.9842146 C36.258972,34.9829139 36.6396064,35.3399793 36.6409077,35.7809453 C36.6409077,35.9162269 36.6057722,36.0437039 36.5433091,36.1542706 L37.2251978,35.3523367 C37.6988761,34.7221065 37.9871172,34.6291005 37.4190936,34.0352922 C36.8595285,33.4974177 36.1327445,32.8262128 35.3714758,32.1244394 C35.4476026,32.2441117 35.4918473,32.3852468 35.4918473,32.5348371 C35.4931486,32.9771039 35.1125142,33.3348196 34.6433905,33.3361204 C34.173616,33.3361204 33.7929817,32.9797054 33.7929817,32.538089 C33.7916803,32.0958222 34.1710134,31.7381064 34.6407878,31.7368056 C34.7949936,31.7368056 34.9400901,31.7751788 35.0650162,31.8428196 C34.2451884,31.087714 33.40519,30.3143975 32.7024804,29.6431927 C32.7623409,29.7524585 32.7948737,29.8747323 32.7955244,30.0048107 C32.7955244,30.447728 32.4155406,30.8060941 31.9464168,30.8067446 C31.4759918,30.807395 31.0953574,30.4509799 31.0947068,30.0080628 C31.0940561,29.5664463 31.4733891,29.2080801 31.9438142,29.2067794 C32.0902121,29.2067794 32.2288021,29.2419005 32.3478723,29.3030375 C31.9665872,28.9329642 31.64256,28.6058168 31.4063715,28.3482614 C30.6184258,27.4234035 30.6639717,26.7665073 31.4493149,25.9242491 C31.7043724,25.6660434 32.0114826,25.3434488 32.3556802,24.9805298 C32.2203435,25.0657312 32.0596312,25.1145107 31.8859057,25.115161 C31.416782,25.115161 31.035497,24.7593964 31.0341957,24.3171296 C31.033545,23.8742124 31.4135287,23.5177974 31.8826525,23.517147 C32.3517762,23.5158462 32.7330613,23.8716108 32.7330613,24.3138776 C32.733712,24.4459073 32.7005285,24.5701322 32.6413187,24.6793981 C33.2880718,23.9971366 34.040882,23.2069099 34.8145133,22.4531051 C34.6941417,22.5161932 34.5529491,22.5519648 34.4039487,22.5526152 C33.9348249,22.5526152 33.5541905,22.1962001 33.5535398,21.7552341 C33.5528892,21.3129673 33.9322223,20.9546012 34.401346,20.9539507 C34.8717711,20.9533003 35.2530562,21.3103657 35.2530562,21.7519821 C35.2537068,21.8846622 35.2185714,22.0127895 35.1567589,22.1233562 C35.4144191,21.8768574 35.6759833,21.6368627 35.9342942,21.4072742 C36.532248,20.9253335 36.6298465,20.5773735 36.277841,20.1975444 C35.4742796,19.4482925 34.7474956,18.8141599 34.0799214,18.2236036 C34.1651575,18.3491294 34.2159088,18.4974188 34.2159088,18.6574153 C34.2172101,19.0990317 33.835925,19.4573979 33.3674519,19.4586987 C32.8983281,19.4593491 32.5170432,19.1016333 32.5163925,18.6600169 C32.5157419,18.2184005 32.8957255,17.8593839 33.3648493,17.8587335 C33.517103,17.8580831 33.6602476,17.8971066 33.7845231,17.9621459 C32.9464768,17.2180971 32.1988718,16.5306323 31.5000661,15.7495111 C31.5631798,15.8607282 31.598966,15.9875547 31.5996167,16.1221859 C31.5996167,16.563152 31.2202836,16.9221686 30.7505092,16.9228189 C30.2800841,16.9241197 29.9001003,16.5657535 29.8994497,16.1254378 C29.898799,15.6818703 30.2781321,15.3235041 30.7479065,15.3235041 C30.9515622,15.3228537 31.1376501,15.3898441 31.2833973,15.5010612 L31.1337462,15.3235041 C30.7934525,14.910505 30.2208743,13.9173558 30.2208743,12.0045519 C30.1662191,12.3954377 29.8103096,12.6985205 29.3795747,12.699171 C28.9098003,12.7004717 28.5291659,12.3421055 28.5285144,11.8998387 C28.5278645,11.4595231 28.9071976,11.1005065 29.3769721,11.0998561 C29.815515,11.0985553 30.1753283,11.4087925 30.2234769,11.8087838 C30.2299835,11.4692789 30.2534071,11.1050593 30.2996038,10.7115719 L30.2996038,10.7115719 Z M50.0678673,52.2677412 C52.999728,42.4942952 54.2437844,31.7055868 54.2262167,21.5471086 C54.2184087,16.7270508 53.7076429,11.8757742 52.6581331,7.15197452 L57.1418111,7.14416981 C57.9733508,12.1183705 58.3195004,17.1621633 58.3286096,22.1968505 C58.3474787,33.9058641 56.7748405,45.2252927 52.276848,56.1765993 L51.5878022,56.2045661 L50.0633127,56.2065172 L48.5264607,56.2091188 L47.8393668,56.1824528 C43.3049376,45.2480564 41.695212,33.9331806 41.6761843,22.2248174 C41.6678844,17.1894797 41.9971168,12.1437359 42.8130408,7.16758393 L47.1171374,7.16108001 C46.0819419,11.8881317 45.7663733,16.7413594 45.7741812,21.5614172 C45.7910983,31.719245 47.0715914,42.5040511 50.0346838,52.2677412 L50.0678673,52.2677412 Z M68.8594945,7.17213668 C68.8594945,6.73117066 69.2407794,6.37150369 69.7086019,6.3708533 C70.179027,6.3702029 70.5590108,6.72791871 70.5603121,7.16953512 C70.5603121,7.61180192 70.1816296,7.96886732 69.7112045,7.96951771 C69.3871773,7.96951771 69.1034909,7.79976531 68.9609969,7.54806346 C69.3286182,8.54771651 69.5843264,9.60200254 69.663056,10.647183 C69.704698,10.9983949 69.7300736,11.3261927 69.7404841,11.6331779 C69.8341787,11.2878195 70.1673152,11.0322153 70.5629147,11.0322153 C71.0326891,11.0315649 71.4139742,11.3892808 71.4146257,11.8302467 C71.4152755,12.2712128 71.0352917,12.6302294 70.5648666,12.6315301 C70.1764244,12.6321805 69.8471919,12.3856818 69.7469907,12.0481282 C69.7313749,13.8906898 69.1776657,14.855872 68.8458306,15.2617168 L68.7566906,15.3690316 C68.8816167,15.3007404 69.0273639,15.2597656 69.1822204,15.2597656 C69.6513441,15.2591153 70.0326291,15.6161807 70.0326291,16.0590978 C70.0339305,16.5000639 69.6539467,16.8590805 69.184823,16.8597308 C68.7156992,16.8603812 68.3337635,16.5026655 68.3337635,16.0616994 C68.3331129,15.9693437 68.3487286,15.8821911 68.3780082,15.8002417 C67.7299538,16.5189253 67.0376546,17.1628137 66.2659753,17.8535304 C66.3869975,17.7917431 66.5255875,17.7546707 66.6713347,17.7546707 C67.1398078,17.7540204 67.5204422,18.1117361 67.5217435,18.5553038 C67.5217435,18.9962697 67.1424104,19.3539856 66.6739373,19.354636 C66.2035122,19.3552863 65.8228778,18.9982209 65.8222272,18.5579052 C65.8222272,18.4024615 65.8677732,18.2580744 65.947804,18.136451 C65.2711207,18.738064 64.5339262,19.3852044 63.7167008,20.1520169 C63.3672981,20.5344477 63.4648966,20.8811068 64.0648024,21.360446 C64.3309211,21.5965384 64.6002932,21.8436874 64.8683639,22.0953893 C64.8059008,21.9861234 64.771416,21.8605977 64.7707654,21.7285681 C64.7701147,21.2856508 65.1500985,20.9266343 65.6192222,20.9259838 C66.0896472,20.9253335 66.4702816,21.2823988 66.4709323,21.7259665 C66.4709323,22.1669324 66.0915992,22.5246483 65.6218248,22.5252987 C65.4741257,22.525949 65.3335837,22.4908279 65.2119109,22.4283902 C65.9712276,23.163984 66.7058195,23.9294958 67.3421622,24.5941968 C67.2842537,24.486882 67.2497688,24.3633075 67.2497688,24.233229 C67.2491181,23.7909622 67.6284512,23.4338968 68.0982257,23.4332464 C68.5686507,23.4319456 68.9499358,23.7877103 68.9499358,24.2299771 C68.9512371,24.6715935 68.5712534,25.0306101 68.1008283,25.0312604 C67.9284041,25.0312604 67.7670412,24.9837818 67.6330058,24.9005316 C67.9882646,25.2706048 68.3018813,25.6003538 68.5647468,25.8631123 C69.3513912,26.7027688 69.3995398,27.359665 68.6141967,28.2871246 C68.38972,28.5349241 68.0832605,28.8458116 67.7247485,29.1976738 C67.8340589,29.1508456 67.9537798,29.1241795 68.0826098,29.1241795 C68.5504323,29.1228787 68.9310667,29.4799442 68.932368,29.9202598 C68.932368,30.3638273 68.5536856,30.7221935 68.0852126,30.7228439 C67.6128355,30.7234944 67.2328518,30.3664289 67.2315504,29.9235117 C67.2315504,29.8122947 67.2575767,29.7056303 67.2998694,29.6093722 C66.604317,30.2760244 65.7760306,31.0447882 64.9679145,31.7940402 C65.0928406,31.7257489 65.2366358,31.6867254 65.3914922,31.6867254 C65.860616,31.686075 66.241901,32.0424901 66.2425516,32.4847569 C66.2432024,32.9263733 65.8632186,33.284089 65.3940948,33.2853899 C64.9256217,33.2860402 64.5430353,32.9289749 64.5430353,32.4880088 C64.5423847,32.3377682 64.5879307,32.1959826 64.6634069,32.0763104 C63.9034395,32.7806854 63.1792581,33.4544919 62.621645,33.9936671 C62.054272,34.5894265 62.3444651,34.6817822 62.8194447,35.3107116 L63.5032853,36.108743 C63.4557874,36.0111842 63.4297611,35.9012679 63.4297611,35.7874492 C63.4291105,35.3451824 63.8090942,34.9874666 64.2788686,34.9868162 C64.748643,34.9855155 65.1286267,35.3419305 65.1292774,35.7841973 C65.129928,36.2258136 64.7512456,36.5848302 64.2814712,36.5861311 C64.0960339,36.5861311 63.9242604,36.5301973 63.7850199,36.4358905 C64.3992401,37.1448181 65.1045524,37.9448006 65.7805851,38.7057597 C65.7226767,38.5977946 65.6907945,38.4781224 65.6901438,38.3486944 C65.6901438,37.9083787 66.0694769,37.5487117 66.539902,37.547411 C67.008375,37.5467605 67.3896601,37.9057771 67.3903107,38.3467432 C67.3909614,38.7870588 67.0109776,39.1467257 66.5425046,39.1480265 C66.3499101,39.1480265 66.1742326,39.0881904 66.0310881,38.98803 L66.5060677,39.5180998 C67.4208916,40.5476709 67.4208916,41.1044068 66.5887012,41.9069909 L65.9887954,42.3908828 C66.0779354,42.3603144 66.1742326,42.3440545 66.2750846,42.3440545 C66.7435576,42.3434042 67.1248426,42.7004696 67.1254933,43.142086 C67.126144,43.5837024 66.7461602,43.9407678 66.2776872,43.9420686 C65.8079127,43.9433694 65.4272783,43.586304 65.425977,43.1446876 C65.425977,43.009406 65.4604618,42.8812787 65.5248769,42.7700615 C64.568411,43.5511828 63.6958799,44.2835246 62.8357112,44.9813956 C62.9248512,44.9521279 63.0237511,44.9339169 63.1259043,44.9339169 C63.5937267,44.9339169 63.9756624,45.2896815 63.976313,45.7332492 C63.9769637,46.1742151 63.5963293,46.531931 63.1285069,46.5332317 C62.6580818,46.5332317 62.2767968,46.1768167 62.2754954,45.7371515 C62.2754954,45.5960164 62.3138842,45.4652875 62.3796005,45.3521193 C61.7790441,45.8347103 61.1765356,46.3049441 60.5519048,46.7699746 C59.9071036,47.311101 59.7548499,47.5088203 60.1543533,47.8366181 C61.0288365,48.570911 61.919586,49.3117079 62.6515753,50.0277899 C62.5767497,49.9087681 62.530553,49.7689337 62.5299023,49.6193435 C62.5299023,49.1783774 62.9098861,48.8200113 63.3803111,48.8187105 C63.8487843,48.8187105 64.2300693,49.1757759 64.23072,49.6167419 C64.2313706,50.0583584 63.8520375,50.4154237 63.3822631,50.4167245 C63.2020311,50.4167245 63.0361135,50.3659939 62.8981743,50.2768902 C63.7869719,51.1893906 64.3816724,52.0596156 64.3166067,52.8199243 C64.0817195,54.3346881 62.5240464,54.1694884 61.5903535,53.6003951 C59.7210157,52.3568449 58.1958755,50.4381875 56.4820448,48.181326 C55.6140683,46.755666 55.0805295,46.2477095 56.7097747,45.1322866 C57.8451714,44.2217373 59.2844248,43.1141191 61.8480137,41.2227782 C62.5806536,40.688806 62.5910642,40.483282 61.9339004,39.70086 C60.5688219,38.1860963 59.0131008,36.5184902 58.1099888,35.3068093 C57.595319,34.6759287 57.6356598,34.000171 58.1613907,33.4174194 C59.657902,31.6366452 62.350321,29.3297035 63.6874213,28.0809502 C64.2586983,27.5593356 64.386227,27.2399929 63.9262124,26.7600033 C61.2969072,24.2442857 60.2382881,22.8784617 58.7944801,21.3695515 C58.0462244,20.3731503 58.2206005,19.8736491 59.0248126,19.0443987 C59.8953919,18.1449061 59.993641,18.0993787 62.10177,16.1163324 C65.1956444,13.2760689 65.6036064,13.2058266 64.3803711,10.937258 C62.7094837,7.80236687 56.8412075,2.26752792 58.4912738,0.992108503 C60.2740742,-0.486233326 62.6222957,0.075055278 65.3030028,2.19663514 C65.7968515,2.55370055 66.3186785,3.07531522 66.8248897,3.71074855 C66.7851997,3.61709205 66.7630773,3.51563085 66.7630773,3.4089665 C66.761776,2.96800049 67.1417598,2.6096343 67.6108835,2.6089839 C68.0806579,2.60833351 68.4619429,2.96539891 68.4625936,3.40636494 C68.4632443,3.84928212 68.0832605,4.20699793 67.6141368,4.20699793 C67.4020226,4.20764832 67.2081268,4.13610515 67.0591263,4.01643296 C67.7514254,4.94649404 68.3968773,6.08858301 68.8764115,7.32302771 C68.8646997,7.27359789 68.8594945,7.22286729 68.8594945,7.17213668 L68.8594945,7.17213668 Z M62.1206382,2.98035794 C62.1212897,3.42197435 62.5025748,3.77969015 62.9716985,3.77904064 C63.4408223,3.77838936 63.820806,3.41937278 63.8201562,2.97775637 C63.8195047,2.53613996 63.4382196,2.17972494 62.9690959,2.17972494 C62.4999721,2.18102573 62.1199884,2.53874153 62.1206382,2.98035794 L62.1206382,2.98035794 Z" id="Fill-2"></path>
                <path d="M48.217854,82.3483227 C47.988172,82.8868475 47.6563369,83.3694387 47.2288552,83.7850394 C46.7955176,84.2116967 46.2990662,84.5407953 45.751213,84.7606279 C45.2007571,84.9804605 44.6021526,85.092328 43.9710152,85.0936397 C43.3580962,85.0949296 42.7620944,84.9804605 42.199276,84.7567256 C41.6390602,84.5342914 41.1432595,84.2116967 40.7300922,83.7980473 C40.2987066,83.3811457 39.9662209,82.8998554 39.7391415,82.3645825 C39.5114115,81.8299599 39.3955947,81.2595658 39.3942905,80.6677088 C39.3936426,80.0719494 39.5075076,79.4937506 39.7332856,78.9513234 C39.9590637,78.4114978 40.2882962,77.9354105 40.7112232,77.5341184 C41.1582247,77.1081114 41.6683398,76.775761 42.2259529,76.5468228 C42.7809634,76.3191855 43.3633015,76.2027652 43.9553994,76.2014534 C44.572873,76.2001637 45.1682242,76.3133319 45.7219335,76.5377174 C46.2723893,76.7601515 46.7688407,77.0892501 47.1963223,77.5146067 C47.6459264,77.9555727 47.9888227,78.4459685 48.2165527,78.9734367 C48.4442826,79.497653 48.5594489,80.0641447 48.5601024,80.6527498 C48.5607502,81.2446069 48.4468852,81.8150009 48.217854,82.3483227 L48.217854,82.3483227 Z M49.2049008,75.675297 C48.5178069,75.0210024 47.7122935,74.5130459 46.809832,74.1637853 C45.9099733,73.8171261 44.9489528,73.642821 43.9514955,73.6441145 C42.9729072,73.6454225 42.0248999,73.8223292 41.1374036,74.1715899 C40.2479554,74.5169483 39.4404899,75.0275063 38.7351776,75.6909065 C38.0415772,76.3412988 37.4982786,77.1022579 37.1235001,77.9542719 C36.7461189,78.808237 36.5554765,79.6986242 36.5567711,80.6052711 C36.5580791,81.5711038 36.7474202,82.4907586 37.1169935,83.3414717 C37.485916,84.1941362 38.036372,84.9648511 38.7507935,85.6399584 C39.4391886,86.2877491 40.2427501,86.793104 41.1432595,87.1423647 C42.0424676,87.4929262 42.9950296,87.6724345 43.9749192,87.6698608 C44.9782324,87.6685321 45.9366503,87.4929262 46.8215439,87.1501695 C47.7083895,86.8035103 48.5204095,86.2923019 49.236783,85.6243489 C49.9245275,84.9791597 50.4632715,84.222103 50.8354474,83.3720402 C51.2102259,82.5239286 51.3989165,81.624436 51.3976218,80.699578 C51.3963138,79.7213879 51.2095752,78.8004323 50.8426046,77.9607758 C50.4762847,77.1224201 49.9251781,76.3536563 49.2049008,75.675297 L49.2049008,75.675297 Z M93.0793585,84.9219252 L93.0741533,81.7525632 L99.4863788,81.742157 L99.4824752,79.2511542 L93.0702492,79.2628614 L93.065044,76.2079684 L99.6666109,76.1962614 L99.6627064,73.72412 L90.1852357,73.7397294 L90.2080088,87.4168303 L99.8962924,87.4005705 L99.8917381,84.9102181 L93.0793585,84.9219252 Z M86.0782883,82.1193845 C86.0789389,82.9479844 85.7933004,83.5931736 85.2025038,84.0952765 C84.5999954,84.6071353 83.7801675,84.8672923 82.7638411,84.868593 C82.1574287,84.8698938 81.612178,84.7684326 81.1424037,84.5713637 C80.6810878,84.3781972 80.2757284,84.0783663 79.9373867,83.6809766 C79.7708185,83.4800054 79.646543,83.2335066 79.5723681,82.9518867 C79.5177129,82.738558 79.4506953,82.2787307 79.4487433,81.297939 L79.4363808,73.7000555 L76.7615295,73.7052587 L76.7745427,81.3766364 C76.7764947,82.4471823 76.8506695,83.2289539 77.001622,83.7622757 C77.157129,84.309906 77.4225971,84.8113585 77.792821,85.2562269 C78.3725564,85.9710081 79.0973885,86.5238416 79.9451946,86.8958661 C80.7838916,87.2646385 81.733851,87.4500003 82.7683957,87.4487064 C84.5238685,87.446098 85.9709298,86.9583037 87.0731429,85.9937718 C88.1916225,85.0175329 88.7576941,83.7304064 88.7551004,82.1694647 L88.7407771,73.6850964 L86.0639738,73.6896492 L86.0782883,82.1193845 Z M72.6532807,82.2949905 C72.4249001,82.8465232 72.0943663,83.3414717 71.6701379,83.7687796 C71.2257391,84.222103 70.7247331,84.5674614 70.1788318,84.7977002 C69.6329305,85.0272887 69.0466885,85.1443594 68.4337696,85.1456602 C67.841021,85.1456602 67.2599841,85.025988 66.7017203,84.7898956 C66.1415046,84.5512016 65.6418,84.2116967 65.2162702,83.781137 C64.7881379,83.3557805 64.4582548,82.8601814 64.2292235,82.3099495 C64.0040961,81.7616688 63.8869778,81.1743644 63.8856656,80.5649468 C63.8843752,79.9490253 64.0001921,79.3532658 64.2240182,78.7978308 C64.4497962,78.2436965 64.7777273,77.7526502 65.2000039,77.3396511 C65.6431013,76.905189 66.1493125,76.5656842 66.704323,76.3308926 C67.2547789,76.0974017 67.8325623,75.9790303 68.4188044,75.9777188 C69.0317234,75.9764287 69.6212187,76.0934994 70.1697226,76.3191855 C70.7175759,76.5494244 71.2107739,76.8850268 71.6363036,77.3214401 C72.0846064,77.7741132 72.4255507,78.2768665 72.6526301,78.8192937 C72.88036,79.3604202 72.9948756,79.9425214 72.9961879,80.5493374 C72.9974783,81.1581046 72.8829626,81.7460593 72.6532807,82.2949905 L72.6532807,82.2949905 Z M74.2851287,85.1924884 C75.3060096,83.9638973 75.82133,82.5122215 75.8187372,80.8732328 C75.8174261,79.8748805 75.6306875,78.9350636 75.2676209,78.0778465 C74.9052049,77.2199789 74.3573516,76.4323537 73.6416288,75.7377347 C72.9577882,75.0697818 72.1587813,74.5488175 71.2608746,74.1917521 C70.3668717,73.8359875 69.4091044,73.6558288 68.4149005,73.6571226 C67.4402161,73.6584304 66.497414,73.8411906 65.6131711,74.1969553 C64.7282775,74.5540207 63.9240653,75.0769361 63.2265609,75.7526937 C62.5368644,76.4199963 61.998771,77.198516 61.6252938,78.0700417 C61.251166,78.9415675 61.0618248,79.850816 61.0637618,80.7756739 C61.0663793,82.4653932 61.5816998,83.9664989 62.5934716,85.2354144 C63.5870249,86.4841677 64.915016,87.3212226 66.5397068,87.7342218 C67.7310599,88.5803822 68.8781683,89.234677 69.945246,89.6782445 C71.0526643,90.1380719 72.0702919,90.3715628 72.9747053,90.3702674 C73.0963782,90.3689612 73.1907235,90.3676604 73.2551385,90.3650589 C73.3345187,90.3585549 73.4145494,90.348799 73.4958816,90.3318889 L73.6038907,90.3104259 L73.6858735,90.2382323 L75.4537088,88.6935505 L75.6742815,88.5029855 L75.5701764,88.2311216 L75.4947001,88.0340526 L75.3691233,87.7036533 L75.0229738,87.7725949 C74.7802787,87.8207239 74.5531994,87.8577964 74.3521463,87.8818608 C74.1536959,87.9059253 73.9708613,87.9150308 73.8081971,87.9163316 C73.2941779,87.9163316 72.7469753,87.8447885 72.1848076,87.6991006 C71.8822521,87.6210535 71.5530196,87.5130884 71.1990621,87.3836603 C72.4522277,86.8796062 73.4900257,86.1479148 74.2851287,85.1924884 L74.2851287,85.1924884 Z M57.2216467,79.3844847 C57.2164414,79.3818831 56.9295016,79.2218866 56.9295016,79.2218866 C54.9788317,78.0941063 54.7667175,77.4866398 54.7660668,77.2772134 C54.7660668,76.9734802 54.8942463,76.7386886 55.1694743,76.5377174 C55.477235,76.3133319 55.8923542,76.2001637 56.4044213,76.1988629 C56.8481695,76.1975621 57.3016775,76.2879667 57.7486789,76.4655237 C58.2125974,76.6495848 58.7311711,76.9559196 59.2894349,77.3728212 L59.9355373,77.8528106 L59.9309827,74.7875115 L59.7260258,74.6717416 C59.1872817,74.3660573 58.6433324,74.1371192 58.1123962,73.98948 C57.5762548,73.8411906 57.0257989,73.7663955 56.4733911,73.7676796 C55.2176228,73.7689971 54.1694143,74.116957 53.3593463,74.7992185 C52.5310598,75.4977399 52.111386,76.4056877 52.1139766,77.4944445 C52.1152899,78.2716634 52.3391159,78.953925 52.7815627,79.524319 C53.2044899,80.0667462 54.1765715,80.7899826 55.7531136,81.7297995 C56.9190912,82.4146627 57.3511274,82.7775816 57.5072852,82.9629434 C57.7050849,83.1983855 57.8013821,83.4598432 57.8013821,83.7687796 C57.8020328,84.1343 57.6719014,84.4035625 57.3895162,84.6155904 C57.0791528,84.8510325 56.63085,84.9687534 56.0589225,84.9700543 C55.500008,84.971355 54.9664692,84.8445285 54.4732711,84.5915259 C53.9638066,84.3287674 53.4140015,83.8878014 52.8388205,83.2783838 L52.1406655,82.5375869 L52.1465214,86.1017369 L52.3033298,86.2227099 C52.8759081,86.663676 53.4836217,86.9901729 54.1076019,87.189193 C54.7296301,87.3927657 55.4297371,87.4929262 56.1910058,87.4916379 C57.4415687,87.4903247 58.4871747,87.1423647 59.3004961,86.4627047 C60.1339878,85.7641833 60.5562642,84.8659915 60.5536735,83.7967464 C60.5523603,82.8790428 60.3259317,82.0940192 59.8815329,81.4618378 C59.4449419,80.8407132 58.5750135,80.1610532 57.2216467,79.3844847 L57.2216467,79.3844847 Z M32.4940749,84.445838 C32.1192964,84.7300595 31.4855565,84.8750969 30.6084708,84.8776985 L28.3565466,84.8803001 L28.3500399,81.3876931 L30.2805396,81.3857092 C31.270189,81.3831404 31.991117,81.5353322 32.4205507,81.8390655 C32.8102943,82.1122303 33.0009368,82.5479931 33.00224,83.1665162 C33.0028888,83.7648772 32.8369713,84.1837299 32.4940749,84.445838 L32.4940749,84.445838 Z M28.3396295,75.3793685 L29.8380928,75.376757 C30.5941562,75.3754662 31.1355029,75.5016423 31.4497703,75.7500922 C31.7406141,75.9803311 31.8818133,76.3627618 31.8818133,76.9175465 C31.8831079,77.5354193 31.6957187,77.9711821 31.3111803,78.2580051 C30.8921572,78.5669415 30.2089673,78.7256372 29.2817809,78.726938 L28.346136,78.7282388 L28.3396295,75.3793685 Z M33.4394797,79.6134228 C33.7674108,79.3896878 34.0419881,79.1308317 34.252801,78.8323016 C34.6444966,78.2833704 34.840995,77.5959057 34.8396937,76.79072 C34.8377417,75.5029431 34.4024521,74.4863798 33.5429341,73.7761514 C32.7087917,73.0854347 31.5291505,72.7348732 30.0352418,72.7374604 L25.5008127,72.7446291 L25.5248869,87.5449576 L30.8231876,87.5365025 C32.3724021,87.5339009 33.6275195,87.1540718 34.5514526,86.4028686 C35.5020626,85.6334545 35.9828982,84.5902251 35.9809522,83.3050498 C35.9789942,82.3001937 35.660823,81.4299687 35.0342402,80.7236425 C34.619121,80.2534089 34.0823289,79.883986 33.4394797,79.6134228 L33.4394797,79.6134228 Z M14.0850341,73.796964 L11.2234443,73.8015166 L11.2455666,87.5566647 L20.9397065,87.5397545 L20.9358026,85.080621 L14.1032526,85.092328 L14.0850341,73.796964 Z M3.16635763,81.4208631 L9.5401944,81.4098064 L9.53563982,78.7939284 L3.16180302,78.8043347 L3.15594711,75.3969292 L9.71847445,75.3871732 L9.71391986,72.790807 L0.304767778,72.805766 L0.32884209,87.5729245 L9.94685511,87.5566647 L9.94230043,84.9394858 L3.17221353,84.9511929 L3.16635763,81.4208631 Z" id="Fill-4"></path>
                <path d="M7.68718809,65.1472009 C7.68914007,66.1748208 7.97477852,66.9917136 8.54605545,67.5965784 C9.11668171,68.200793 9.87860112,68.5019246 10.8337657,68.5006239 C11.7882797,68.4993231 12.5488978,68.1955898 13.1182227,67.5887738 C13.6868971,66.9826081 13.9705835,66.1644145 13.9679809,65.1367946 L13.9595224,59.5200062 L14.7507213,59.5187054 L14.7604893,65.0938687 C14.7624332,66.3829463 14.4091264,67.4047127 13.6999102,68.1630702 C12.990694,68.9201269 12.0348787,69.2999561 10.8318137,69.302561 C9.63330343,69.3038584 8.67944014,68.928582 7.97282655,68.1767284 C7.2655623,67.4222733 6.91290616,66.4011573 6.91030354,65.1068766 L6.90119434,59.5310629 L7.67742824,59.529762 L7.68718809,65.1472009 Z" id="Fill-6"></path>
                <polygon id="Fill-8" points="17.8009367 68.4232922 17.7872729 59.9811994 18.4860786 59.9798986 24.6100631 67.337137 24.5983512 59.9694923 25.2698294 59.9681916 25.2834931 68.4102843 24.6634169 68.4115852 18.4613536 60.9567879 18.4730655 68.4219915"></polygon>
                <polygon id="Fill-10" points="28.3283731 60.0863679 29.0499518 60.085067 29.0642663 68.5278102 28.3420369 68.5284606"></polygon>
                <polygon id="Fill-12" points="31.4780739 60.0812948 32.2133164 60.079994 35.0840155 67.1608156 37.9566665 60.0708885 38.6678347 60.0695877 35.1471292 68.6671243 35.0397707 68.6671243"></polygon>
                <polygon id="Fill-14" points="40.7010079 68.5084285 40.6873441 60.0663358 45.2146161 60.0585311 45.2152667 60.6022591 41.3620755 60.608763 41.3666301 63.9582836 45.0955458 63.9530805 45.0968471 64.4968085 41.3679315 64.5033124 41.3731367 67.9393352 45.3226252 67.9328313 45.3232758 68.5006239"></polygon>
                <path d="M48.2928748,60.0533279 L50.3255274,60.0506988 C51.212373,60.0481248 51.8929604,60.2295843 52.3672894,60.5931536 C52.8409677,60.9580237 53.0784576,61.4783376 53.0791082,62.1579975 C53.0797589,62.6776611 52.9489768,63.1069201 52.6848101,63.4503272 C52.4212939,63.7917832 52.0211398,64.0506393 51.4889024,64.2249445 C51.6405055,64.3127475 51.7784447,64.4142087 51.9014189,64.5312793 C52.0250438,64.6490003 52.1356554,64.7816804 52.2365073,64.9299699 L54.540484,68.4856648 L53.7831192,68.4869657 L52.4486215,66.412214 C52.1838041,66.0070195 51.9580261,65.6720675 51.7667329,65.4099594 C51.5754397,65.1472009 51.4238366,64.9592375 51.311273,64.8486708 C51.1635738,64.7003813 50.969678,64.5930666 50.7256816,64.5299785 C50.4836372,64.4701424 50.1277277,64.4382732 49.6592546,64.439574 L48.9741127,64.4408748 L48.9806193,68.4947703 L48.3065385,68.4954208 L48.2928748,60.0533279 Z M48.9676062,60.6211204 L48.9728114,63.859424 L49.4848785,63.8581232 C50.1218718,63.8568224 50.5623666,63.8412131 50.8076644,63.808043 C51.0555647,63.7755234 51.2624737,63.7221912 51.4290419,63.6441441 C51.7355014,63.5075617 51.9645327,63.3156959 52.1167864,63.0717988 C52.2690402,62.8253002 52.3458177,62.5215669 52.3445326,62.1605991 C52.3445326,61.6689026 52.172743,61.2877727 51.827244,61.019811 C51.4823957,60.7505485 50.994403,60.6172181 50.3632656,60.6185094 L48.9676062,60.6211204 Z" id="Fill-18"></path>
                <path d="M60.6623213,61.2333998 C60.3161717,60.9973074 59.985638,60.824303 59.6739733,60.709834 C59.3616578,60.5979664 59.0512944,60.5433336 58.7454855,60.5433336 C58.237973,60.5446343 57.8254564,60.6948749 57.5040318,60.9947058 C57.1819566,61.2958375 57.0205936,61.6743658 57.0218949,62.1263885 C57.0218949,62.4971122 57.1260001,62.7982439 57.3335597,63.0310843 C57.5404687,63.2632744 57.9868194,63.5273336 58.6713107,63.8200102 C58.7096994,63.8349693 58.7708612,63.8603346 58.850892,63.8922037 C59.6251739,64.2095952 60.1404943,64.5146293 60.4001065,64.8079562 C60.5816398,65.0050251 60.7176272,65.2307113 60.8113218,65.4824131 C60.9056671,65.7367165 60.9525144,66.0059789 60.9538171,66.2915012 C60.9544664,66.9653076 60.7241338,67.5174908 60.2621672,67.9506521 C59.7988994,68.3851142 59.2081028,68.6010444 58.4858734,68.6023652 C58.1254093,68.603646 57.765596,68.5412084 57.4083852,68.4169834 C57.0524758,68.2927585 56.6926625,68.1054455 56.3295958,67.854394 L56.3282945,67.0348997 C56.721942,67.3425352 57.0973712,67.5734245 57.4500273,67.7236652 C57.8013821,67.8732554 58.1429771,67.9480505 58.4735109,67.9480505 C59.0194122,67.9467498 59.4507978,67.7945579 59.7683185,67.4934262 C60.0864898,67.1896931 60.2439488,66.7805963 60.2432982,66.2609328 C60.2426475,65.8811036 60.1339878,65.5663137 59.9179696,65.3237173 C59.6999995,65.081121 59.2055001,64.7968996 58.4338208,64.4717034 C57.6341633,64.1400033 57.0869606,63.8031 56.792213,63.4642456 C56.498116,63.12344 56.3510675,62.6889779 56.3497662,62.1634609 C56.3484649,61.5065646 56.5716402,60.9706413 57.017991,60.5537398 C57.4649924,60.1361879 58.0486318,59.9261111 58.7695599,59.9248104 C59.0948884,59.9248104 59.4137104,59.9696875 59.7240738,60.0594417 C60.0337866,60.1498461 60.3467526,60.2896805 60.6616707,60.4789446 L60.6623213,61.2333998 Z" id="Fill-20"></path>
                <polygon id="Fill-22" points="63.6290573 60.0278976 64.3499854 60.0265968 64.3642999 68.46934 63.6427212 68.4699904"></polygon>
                <path d="M70.377087,60.0177311 C71.014731,60.0164506 71.557379,60.0775876 72.005031,60.199211 C72.4533337,60.3201839 72.8567412,60.5133504 73.2165545,60.7800113 C73.7409842,61.1721979 74.1515487,61.6716992 74.4443444,62.2778649 C74.7384414,62.8807786 74.8861406,63.5324718 74.8874505,64.229042 C74.8887432,64.9210594 74.742996,65.5688502 74.4508511,66.1750159 C74.1593567,66.7818319 73.7513947,67.2813333 73.2282663,67.6761215 C72.8678023,67.9466847 72.4630937,68.1437536 72.008935,68.2699297 C71.5560777,68.3967562 71.0166829,68.4591938 70.3907508,68.4591938 L67.4959774,68.4637466 L67.4823137,60.0216538 L70.377087,60.0177311 Z M70.2118201,60.62389 L68.1928312,60.6271691 L68.2038924,67.8679872 L70.2235319,67.8653856 C70.7720359,67.8640849 71.2463649,67.8185574 71.6413137,67.7249009 C72.0382145,67.6331955 72.3785082,67.4868573 72.6660986,67.289138 C73.1306678,66.9749985 73.4950357,66.5483411 73.7585519,66.0072147 C74.0233693,65.4699906 74.1561034,64.8781336 74.1554551,64.2387978 C74.1541514,63.5988118 74.0194654,63.0082555 73.7533466,62.4684299 C73.4872279,61.9273034 73.1222093,61.4999956 72.6556881,61.1865065 C72.3680977,60.9894376 72.0271534,60.8470017 71.6302526,60.7559468 C71.234653,60.6681438 70.760324,60.6226164 70.2118201,60.62389 L70.2118201,60.62389 Z" id="Fill-26"></path>
                <path d="M76.1592813,68.4499583 L79.6246809,60.3148507 L79.8810398,60.3148507 L83.3724657,68.4382513 L82.6990357,68.4382513 L81.5141891,65.6350602 L78.0084488,65.6402633 L76.8385673,68.4486575 L76.1592813,68.4499583 Z M78.2303228,65.0952345 L81.2916643,65.0900314 L79.7561137,61.4328752 L78.2303228,65.0952345 Z" id="Fill-30"></path>
                <path d="M88.6971179,59.9872277 C89.3341113,59.9859473 89.8767592,60.0470841 90.325062,60.1687075 C90.772714,60.2896805 91.1767721,60.4841478 91.5346335,60.7495079 C92.0610151,61.1416945 92.4715797,61.6424966 92.7643754,62.2473615 C93.0578217,62.851576 93.2061715,63.5019683 93.2074814,64.1985385 C93.2087741,64.8905561 93.0623763,65.5383468 92.7708819,66.1458133 C92.4793876,66.7513286 92.0714256,67.2508299 91.5463453,67.6456181 C91.1884839,67.9161812 90.7824739,68.1145509 90.3283152,68.2400767 C89.8761086,68.3662528 89.3360632,68.4286905 88.7107818,68.4293408 L85.8147071,68.4332433 L85.8010433,59.9924512 L88.6971179,59.9872277 Z M88.5318511,60.5934138 L86.5115609,60.5966657 L86.5232726,67.8387846 L88.5435629,67.8348822 C89.0933682,67.8335815 89.5644438,67.7893548 89.9613447,67.6956983 C90.3582455,67.6026922 90.6978885,67.4563539 90.9848282,67.2599354 C91.4506987,66.9444951 91.8150667,66.5178377 92.0779321,65.978012 C92.3434002,65.4394872 92.4741823,64.848931 92.473534,64.2082945 C92.472881,63.5696092 92.3394963,62.9790529 92.0720762,62.4379264 C91.8072588,61.8968 91.4422402,61.4694923 90.9744178,61.1573039 C90.6874779,60.960235 90.3465337,60.8164983 89.9502835,60.7267442 C89.5520814,60.6376404 89.0810056,60.5934138 88.5318511,60.5934138 L88.5318511,60.5934138 Z" id="Fill-34"></path>
            </g>
        </g>
    </g>
</svg>